<?xml version="1.0" standalone="no"?>
<!DOCTYPE svg PUBLIC "-//W3C//DTD SVG 20010904//EN"
 "http://www.w3.org/TR/2001/REC-SVG-20010904/DTD/svg10.dtd">
<svg version="1.0" xmlns="http://www.w3.org/2000/svg"
 width="300.000000pt" height="376.000000pt" viewBox="0 0 300.000000 376.000000"
 preserveAspectRatio="xMidYMid meet">
<metadata>
Created by potrace 1.10, written by Peter Selinger 2001-2011
</metadata>
<g transform="translate(0.000000,376.000000) scale(0.100000,-0.100000)"
fill="#000000" stroke="none">
<path d="M1470 3591 l0 -169 -32 -7 c-86 -19 -190 -103 -233 -188 -30 -60 -34
-150 -9 -202 33 -71 133 -116 272 -123 152 -7 271 37 322 121 25 40 26 115 4
181 -30 89 -152 194 -244 211 l-35 6 3 170 4 169 -26 0 -26 0 0 -169z m49
-213 c5 -18 10 -27 10 -20 1 19 45 14 73 -8 14 -10 28 -16 32 -13 8 9 81 -63
108 -105 11 -19 18 -43 16 -57 -4 -17 -1 -22 10 -17 12 4 14 -4 10 -47 -8 -79
-60 -135 -152 -164 -59 -17 -230 -14 -285 7 -53 20 -112 63 -109 79 1 7 -4 23
-11 36 -17 31 -9 96 19 149 20 38 91 117 107 117 4 1 22 9 40 18 38 20 69 22
76 5 3 -7 6 -1 6 13 2 50 36 55 50 7z"/>
<path d="M2303 3101 l-303 -176 0 -562 0 -562 86 -50 c47 -28 88 -51 92 -51 3
0 47 24 99 53 l93 52 0 88 c0 51 -4 87 -10 87 -10 0 -11 -8 -14 -85 -2 -59
-12 -80 -49 -98 -17 -9 -51 -27 -73 -41 l-42 -26 -58 31 c-74 39 -93 56 -91
81 1 15 6 18 22 13 48 -16 66 -17 80 -5 8 7 15 18 15 24 0 6 -5 3 -11 -6 -11
-20 -41 -23 -70 -8 -26 15 -49 62 -49 105 0 28 5 38 26 47 25 12 25 12 5 20
-20 7 -21 14 -21 183 0 96 2 175 5 175 3 0 22 -7 42 -15 47 -20 50 -19 69 9
13 20 15 54 15 182 -1 100 -5 161 -12 165 -20 12 23 72 57 81 12 3 120 63 240
133 252 148 283 165 301 165 11 0 13 -100 11 -522 l-3 -523 -27 -5 c-25 -5
-25 -7 -12 -25 14 -18 16 -19 42 -3 l27 17 5 561 c3 309 3 563 1 566 -2 2 -18
-5 -35 -15 -41 -26 -568 -331 -571 -331 -1 0 -36 20 -79 44 l-76 44 277 160
c153 88 288 165 301 171 20 11 23 33 4 30 -4 -1 -143 -80 -309 -178z m-163
-332 c0 -18 -4 -17 -50 9 -37 20 -50 33 -50 49 0 22 1 22 50 -8 32 -20 50 -38
50 -50z m-47 -24 c22 -11 37 -26 37 -37 0 -23 -3 -23 -50 5 -24 13 -40 30 -40
40 0 10 3 17 8 15 4 -2 24 -12 45 -23z m37 -87 c0 -23 -3 -23 -50 5 -23 12
-40 30 -40 40 0 16 4 15 45 -5 27 -14 45 -30 45 -40z m-2 -58 c3 -19 1 -18
-42 7 -26 17 -45 36 -46 46 0 16 4 16 43 -7 23 -14 43 -34 45 -46z m0 -49 c3
-20 2 -20 -42 6 -27 17 -45 35 -46 47 0 16 4 16 43 -7 24 -15 43 -34 45 -46z
m0 -51 c3 -19 1 -18 -42 7 -26 17 -45 36 -46 46 0 16 4 16 43 -7 23 -14 43
-34 45 -46z m0 -50 c3 -19 1 -18 -42 7 -26 17 -45 36 -46 46 0 16 4 16 43 -7
23 -14 43 -34 45 -46z m4 -50 c9 -26 6 -25 -48 6 -28 17 -44 33 -44 46 0 18 2
18 42 -6 23 -14 46 -34 50 -46z"/>
<path d="M2311 2480 c-71 -43 -88 -57 -79 -66 9 -8 157 79 158 94 0 17 -7 15
-79 -28z"/>
<path d="M710 2079 c-256 -148 -472 -274 -480 -279 -12 -7 -2 -66 69 -397 47
-213 87 -392 91 -396 4 -4 53 19 108 52 56 33 102 56 102 51 0 -34 54 -10 315
141 153 88 289 166 302 172 26 12 31 37 7 37 -8 0 -148 -77 -309 -170 -270
-156 -326 -186 -299 -161 11 11 498 292 604 349 121 64 140 76 140 87 0 10
-51 253 -126 608 -21 97 -43 177 -49 176 -5 0 -219 -122 -475 -270z m480 204
c0 -17 71 -352 121 -566 16 -71 29 -132 29 -137 0 -10 -165 -109 -515 -309
-361 -207 -419 -240 -422 -237 -2 2 -153 700 -156 724 -2 15 922 554 935 546
4 -3 8 -12 8 -21z"/>
<path d="M2308 2253 c-43 -25 -78 -52 -78 -60 0 -12 6 -11 33 5 17 11 53 32
80 47 26 15 47 33 47 41 0 8 -1 14 -2 13 -2 -1 -38 -21 -80 -46z"/>
<path d="M1736 2200 c-16 -5 -42 -21 -57 -36 -32 -31 -83 -39 -113 -18 -11 8
-43 14 -70 14 l-49 0 34 -24 c19 -13 38 -20 42 -16 10 9 75 -7 93 -21 8 -6 14
-4 18 6 3 8 14 15 25 15 11 0 23 5 26 10 11 18 23 11 18 -10 -9 -35 22 -23 40
15 9 20 28 41 42 47 52 23 15 37 -49 18z"/>
<path d="M1398 2075 c-31 -21 -78 -80 -78 -98 0 -3 19 3 43 13 23 11 54 20 68
20 15 0 40 7 55 15 42 22 77 18 104 -10 28 -30 51 -32 75 -5 23 26 84 27 116
2 13 -11 43 -22 67 -26 l43 -6 -28 35 c-37 48 -86 77 -120 73 -26 -3 -24 -5
27 -31 30 -15 44 -25 30 -21 -67 15 -117 15 -155 0 -36 -16 -39 -15 -49 1 -38
68 -128 85 -198 38z m151 -4 c19 -12 3 -19 -68 -27 -47 -5 -62 -4 -57 4 14 23
100 39 125 23z"/>
<path d="M2690 2022 c16 -33 8 -37 -32 -15 -45 24 -169 24 -217 -1 -28 -15
-35 -16 -43 -4 -7 10 -8 8 -4 -5 3 -10 6 -23 6 -28 0 -22 85 -49 155 -49 76 0
128 19 152 56 12 19 11 24 -7 45 l-21 24 11 -23z m-42 -31 c15 -8 13 -11 -11
-20 -31 -12 -126 -15 -151 -5 -23 9 -19 32 7 38 31 6 135 -2 155 -13z"/>
<path d="M1431 1983 c-23 -16 -71 -105 -71 -132 0 -11 6 -9 23 5 12 11 34 28
50 37 l27 17 0 -38 c0 -35 -4 -41 -37 -56 -51 -23 -89 -53 -80 -62 8 -9 60 18
94 49 l22 19 6 -35 c4 -20 5 -39 2 -44 -3 -5 0 -16 7 -26 11 -14 14 -6 16 56
2 39 2 84 2 100 -2 54 15 25 21 -34 4 -52 10 -67 36 -93 34 -34 43 -18 10 17
-28 29 -39 60 -39 108 0 36 -2 39 -27 40 -24 0 -25 1 -8 8 11 5 25 6 31 4 6
-2 14 3 17 11 8 20 -1 20 -46 1 -62 -26 -72 -21 -47 21 26 41 23 50 -9 27z"/>
<path d="M2053 1993 c-7 -3 -13 -18 -13 -34 0 -37 50 -95 73 -86 43 16 -17
134 -60 120z"/>
<path d="M1800 1965 c0 -11 4 -34 9 -52 5 -17 7 -34 4 -37 -3 -2 -28 13 -55
35 -55 43 -78 49 -78 19 0 -16 5 -19 23 -15 25 7 74 -36 62 -54 -8 -14 4 -53
14 -46 5 2 19 -5 32 -16 13 -12 37 -26 52 -31 18 -7 26 -16 23 -24 -3 -9 2
-14 14 -14 23 0 112 -46 141 -73 19 -18 20 -19 2 -33 -14 -12 -11 -11 15 1 25
12 37 13 53 4 l21 -11 -21 -19 c-12 -11 -21 -27 -21 -37 0 -12 4 -10 13 8 17
34 52 30 122 -14 30 -20 59 -36 64 -36 5 0 23 -14 40 -31 20 -20 37 -29 48
-25 9 4 24 -1 35 -11 20 -19 75 -51 270 -162 142 -80 188 -109 188 -119 -1
-18 -25 -35 -175 -122 -88 -51 -203 -118 -255 -149 -52 -31 -107 -62 -122 -71
-15 -8 -54 -30 -85 -49 -32 -19 -74 -43 -93 -54 -19 -10 -72 -41 -116 -68 -45
-27 -86 -49 -92 -49 -6 0 -39 16 -74 37 -150 86 -154 87 -276 90 -62 1 -124
-2 -138 -7 -62 -24 7 28 118 89 53 29 123 69 241 138 34 20 85 49 112 65 123
70 153 94 157 120 6 37 -20 72 -77 104 -29 16 -95 53 -147 83 -142 83 -211
121 -230 128 -10 3 -18 9 -18 14 0 5 8 9 18 10 9 1 -2 7 -25 14 -23 8 -80 34
-127 60 -81 44 -86 48 -94 88 -10 47 1 76 36 92 12 5 22 13 22 18 0 12 -32 -8
-56 -35 -20 -21 -20 -28 -11 -90 9 -54 15 -68 31 -72 12 -3 163 -88 336 -189
298 -174 315 -185 318 -215 3 -26 -2 -33 -30 -48 -18 -9 -235 -133 -481 -276
-247 -142 -457 -258 -469 -258 -11 0 -140 70 -287 156 l-266 155 -78 -41 c-43
-23 -80 -40 -83 -37 -6 5 119 77 134 77 14 0 33 26 25 33 -3 4 -12 2 -20 -4
-17 -15 -93 33 -93 59 0 9 -10 22 -22 27 -23 11 -30 28 -48 118 -6 31 -14 57
-18 57 -22 0 -267 -158 -270 -173 -6 -28 12 -42 145 -119 l124 -71 -67 -36
c-132 -72 -140 -183 -17 -256 29 -18 51 -34 48 -37 -3 -2 26 -4 63 -4 64 1 73
5 189 69 l122 69 100 -57 100 -57 -15 -30 c-8 -16 -37 -42 -63 -59 -79 -48
-101 -126 -56 -195 8 -13 56 -44 105 -69 130 -65 144 -64 310 34 111 66 137
78 153 69 11 -5 36 -7 57 -4 26 4 48 0 75 -14 41 -21 105 -27 105 -10 0 6 -14
10 -30 10 -17 0 -54 12 -83 27 -37 19 -67 26 -102 26 -43 -1 -60 5 -121 46
-99 64 -240 144 -277 157 -24 8 -33 19 -43 53 -14 48 -36 77 -76 97 -31 16
-86 18 -122 4 -19 -7 -29 -6 -39 4 -23 23 -125 86 -189 116 -59 28 -59 29 -36
43 54 33 100 57 109 57 5 0 30 -15 56 -34 27 -18 62 -40 78 -48 53 -26 199
-110 215 -123 13 -11 64 -40 160 -91 39 -22 73 -17 136 20 119 69 174 96 174
85 0 -6 -18 -31 -40 -56 -42 -48 -50 -66 -25 -57 8 4 15 2 16 -2 1 -10 5 -40
14 -92 5 -25 20 -44 65 -79 61 -47 68 -64 41 -97 -20 -24 -2 -19 52 13 l49 28
-64 37 c-76 43 -88 53 -114 91 -18 25 -20 39 -15 87 4 33 16 70 27 85 31 43
120 83 200 90 96 8 170 -14 288 -83 87 -51 100 -55 123 -45 63 29 930 535 945
552 32 37 13 54 -206 180 -1017 586 -918 527 -910 540 4 6 18 -1 36 -18 l30
-28 -4 68 c-3 46 -9 73 -21 84 -16 16 -17 16 -17 -2z m-1475 -904 c3 -20 22
-56 41 -80 18 -24 34 -47 34 -51 0 -5 15 -13 33 -20 31 -11 31 -12 12 -26 -25
-19 -111 -64 -123 -64 -4 0 -17 9 -29 19 -18 17 -159 101 -169 101 -3 0 -15 9
-27 20 -30 29 -19 41 98 110 111 64 118 64 130 -9z m21 -271 c5 -5 71 -45 147
-89 l138 -79 -124 -66 c-78 -41 -136 -66 -156 -66 -37 0 -123 41 -157 75 -19
19 -24 35 -24 73 0 61 14 79 95 126 69 39 68 39 81 26z m441 -175 c24 -16 68
-83 61 -91 -3 -2 -29 11 -58 31 -28 19 -59 35 -68 35 -12 0 -13 3 -4 12 9 9
21 9 49 0 35 -10 36 -10 18 4 -13 10 -36 14 -67 12 -25 -2 -44 0 -41 5 8 13
88 7 110 -8z m315 -263 c76 -42 137 -79 137 -82 1 -3 -55 -38 -123 -77 -153
-90 -172 -92 -288 -31 -89 46 -109 69 -110 126 -1 53 13 75 71 110 27 17 54
43 62 60 l13 30 51 -29 c27 -17 112 -64 187 -107z"/>
<path d="M267 745 c-21 -12 -46 -30 -55 -39 -9 -10 9 -1 42 18 32 19 61 38 64
41 12 12 -16 1 -51 -20z"/>
<path d="M803 392 c-29 -21 -52 -41 -53 -45 0 -10 81 45 99 67 18 22 14 20
-46 -22z"/>
<path d="M2746 1953 c-11 -11 -6 -22 7 -17 8 3 20 -3 28 -12 17 -20 21 -116 7
-153 -7 -21 -7 -24 3 -14 14 14 25 120 15 156 -5 23 -48 51 -60 40z"/>
<path d="M2736 1809 c-4 -61 -5 -113 -3 -115 2 -2 12 5 22 16 18 20 18 20 1
14 -17 -7 -17 -5 -2 25 19 36 19 162 0 168 -7 2 -13 -34 -18 -108z"/>
<path d="M1642 1838 c-16 -29 -32 -64 -36 -78 l-7 -25 20 25 c11 14 21 30 21
35 0 6 11 27 25 47 27 40 30 48 16 48 -5 0 -22 -24 -39 -52z"/>
<path d="M2268 1713 c-10 -2 -18 -8 -18 -13 0 -4 13 -3 28 2 43 17 80 3 85
-30 3 -22 4 -20 6 11 l1 37 -42 -1 c-24 -1 -51 -3 -60 -6z"/>
<path d="M2192 1650 c4 -13 36 -34 222 -140 33 -18 56 -29 53 -23 -3 5 -59 40
-124 78 -65 37 -127 75 -137 84 -16 13 -18 13 -14 1z"/>
<path d="M2770 1554 c-182 -108 -214 -119 -258 -88 -13 9 -26 14 -29 11 -7 -7
71 -47 92 -47 16 0 339 183 364 206 38 35 -8 12 -169 -82z"/>
<path d="M1626 1554 c-5 -12 -1 -14 17 -8 45 13 54 23 21 24 -20 0 -34 -6 -38
-16z"/>
<path d="M2533 1543 c-29 -3 -46 -10 -53 -23 -10 -19 -9 -19 42 -1 29 10 60
21 68 24 17 6 16 6 -57 0z"/>
<path d="M1377 1481 c-45 -29 -45 -36 0 -11 24 13 45 21 48 18 3 -2 -11 -13
-30 -24 -34 -18 -46 -34 -25 -34 10 0 89 37 100 47 8 7 -24 23 -45 22 -11 0
-32 -8 -48 -18z"/>
<path d="M2212 1482 c-22 -2 -32 -8 -29 -16 3 -7 -19 -24 -55 -41 -89 -44
-123 -94 -102 -149 7 -17 199 -136 272 -168 52 -23 71 -20 152 29 74 43 94 70
84 109 -8 34 -129 156 -173 175 -18 8 -30 20 -28 29 1 8 -4 14 -12 12 -7 -1
-18 1 -25 6 -16 13 -46 18 -84 14z m109 -64 c90 -61 189 -160 189 -189 0 -20
-16 -33 -81 -72 -45 -26 -86 -47 -91 -47 -21 0 -281 156 -294 176 -25 36 -2
65 99 122 51 28 97 52 103 52 6 0 40 -19 75 -42z"/>
<path d="M2175 1390 c3 -6 20 -17 37 -26 34 -18 55 -7 43 23 -7 17 -7 17 -14
0 -6 -17 -8 -17 -20 -3 -14 17 -56 23 -46 6z"/>
<path d="M2110 1346 c0 -1 28 -25 63 -51 34 -26 88 -75 120 -107 61 -64 73
-66 32 -6 -31 46 -215 187 -215 164z"/>
<path d="M1452 1454 l-23 -16 21 -15 c21 -15 43 -10 79 14 6 4 -32 32 -44 33
-6 0 -21 -7 -33 -16z"/>
<path d="M1273 1419 c-29 -17 -53 -33 -53 -36 0 -5 89 44 105 58 16 16 1 9
-52 -22z"/>
<path d="M1535 1430 c-3 -6 -23 -19 -43 -29 l-37 -19 28 -13 c24 -11 33 -10
65 6 20 10 41 21 46 24 5 2 6 -1 2 -8 -4 -6 -26 -21 -48 -32 l-40 -21 22 -15
c21 -15 26 -14 77 12 62 31 61 33 -19 78 -29 17 -49 23 -53 17z"/>
<path d="M1315 1417 c-13 -10 -15 -16 -6 -21 6 -4 18 -3 25 3 11 9 22 7 48 -9
32 -18 36 -19 57 -3 l24 16 -27 14 c-20 11 -31 11 -48 2 -16 -9 -23 -9 -26 0
-5 15 -24 14 -47 -2z"/>
<path d="M1235 1370 c-28 -17 -54 -31 -60 -33 -5 -3 -7 -8 -3 -12 10 -10 69
15 62 26 -3 5 3 9 13 9 24 0 59 25 47 33 -6 3 -32 -7 -59 -23z"/>
<path d="M1315 1376 c-19 -14 -19 -15 8 -27 22 -10 32 -10 53 1 l25 14 -23 13
c-30 16 -40 16 -63 -1z"/>
<path d="M1415 1356 c-19 -14 -19 -15 6 -26 21 -9 32 -9 50 0 22 12 22 13 4
26 -24 18 -36 18 -60 0z"/>
<path d="M1613 1322 c-35 -20 -63 -39 -63 -42 0 -3 9 -11 20 -18 18 -11 29 -8
83 24 77 45 74 41 51 59 -25 19 -19 20 -91 -23z m28 -22 c-30 -26 -45 -26 -31
0 6 11 21 20 33 20 l22 -1 -24 -19z"/>
<path d="M1246 1337 c-17 -13 -16 -14 12 -26 26 -11 34 -11 52 2 22 15 22 15
2 26 -27 14 -44 14 -66 -2z"/>
<path d="M1318 1302 c-26 -15 -48 -30 -48 -33 0 -15 46 -26 68 -16 26 12 28
22 6 31 -9 4 -14 9 -11 12 3 3 14 1 26 -5 14 -8 27 -8 46 1 25 11 25 13 9 25
-25 18 -42 16 -96 -15z"/>
<path d="M1070 1275 c-41 -25 -79 -46 -85 -49 -5 -2 -7 -7 -3 -11 4 -4 21 -2
38 5 17 7 28 15 25 18 -3 3 9 11 27 17 18 6 32 17 30 24 -1 7 3 11 10 8 7 -2
21 0 31 5 12 6 23 3 39 -12 26 -24 36 -24 62 -5 21 16 21 17 -9 33 -14 7 -26
7 -40 0 -14 -8 -20 -8 -23 0 -6 20 -23 14 -102 -33z"/>
<path d="M1456 1307 c-17 -12 -16 -14 8 -25 20 -9 32 -9 52 0 24 11 25 13 8
25 -10 7 -25 13 -34 13 -9 0 -24 -6 -34 -13z"/>
<path d="M1710 1302 l-22 -18 26 -14 c20 -10 31 -11 49 -2 12 6 29 12 37 14 9
3 2 11 -19 21 -42 21 -44 21 -71 -1z"/>
<path d="M1403 1277 c-13 -6 -23 -13 -23 -17 0 -16 45 -27 68 -17 12 6 22 13
22 17 0 16 -45 27 -67 17z"/>
<path d="M1122 1266 l-24 -13 26 -17 c24 -15 28 -15 52 0 l26 17 -24 13 c-12
7 -25 13 -28 13 -3 0 -16 -6 -28 -13z"/>
<path d="M1646 1265 c-20 -15 -20 -15 0 -30 24 -18 34 -18 58 0 21 16 21 17
-11 34 -26 13 -24 14 -47 -4z"/>
<path d="M1496 1255 c-21 -16 -21 -17 9 -33 17 -9 44 -3 64 14 6 6 -31 33 -44
33 -5 0 -19 -6 -29 -14z"/>
<path d="M1220 1246 l-25 -14 28 -13 c21 -10 33 -10 54 0 l28 13 -25 14 c-14
7 -27 13 -30 13 -3 0 -16 -6 -30 -13z"/>
<path d="M1330 1236 l-25 -14 28 -13 c21 -10 33 -10 54 0 l28 13 -25 14 c-14
7 -27 13 -30 13 -3 0 -16 -6 -30 -13z"/>
<path d="M1055 1226 c-18 -13 -18 -14 3 -25 28 -15 47 -14 61 3 10 12 8 17 -8
25 -26 14 -33 14 -56 -3z"/>
<path d="M1576 1227 c-17 -13 -17 -14 8 -30 24 -16 28 -16 52 -1 l26 17 -24
13 c-30 17 -40 17 -62 1z"/>
<path d="M1432 1217 l-23 -13 25 -14 c21 -11 31 -11 53 -1 l28 13 -25 14 c-30
16 -30 16 -58 1z"/>
<path d="M1155 1206 c-19 -14 -19 -15 6 -26 21 -9 32 -9 50 0 22 12 22 13 4
26 -24 18 -36 18 -60 0z"/>
<path d="M900 1178 c-37 -22 -49 -33 -38 -36 23 -4 60 16 52 29 -3 6 0 9 7 8
20 -4 59 11 59 22 0 16 -24 9 -80 -23z"/>
<path d="M1265 1196 c-19 -14 -19 -15 6 -26 21 -9 32 -9 50 0 22 12 22 13 4
26 -24 18 -36 18 -60 0z"/>
<path d="M986 1187 c-17 -13 -16 -14 12 -26 24 -10 35 -10 53 -1 22 12 22 13
4 26 -24 18 -46 18 -69 1z"/>
<path d="M1342 1092 c-181 -106 -182 -107 -160 -124 27 -20 20 -23 -17 -6 -20
9 -31 8 -50 -2 -31 -17 -31 -23 -1 -39 22 -12 39 -4 219 100 194 113 196 114
174 131 -25 20 -19 23 16 7 18 -8 30 -8 48 1 22 12 22 13 4 26 -10 8 -26 14
-34 13 -9 0 -98 -49 -199 -107z"/>
<path d="M1365 1176 c-19 -14 -19 -15 6 -26 21 -9 32 -9 50 0 22 12 22 13 4
26 -24 18 -36 18 -60 0z"/>
<path d="M1086 1167 c-17 -12 -16 -14 8 -25 20 -9 32 -9 52 0 24 11 25 13 8
25 -10 7 -25 13 -34 13 -9 0 -24 -6 -34 -13z"/>
<path d="M933 1157 c-29 -13 -29 -20 1 -36 19 -11 27 -10 45 0 27 17 26 23 -1
36 -16 7 -30 7 -45 0z"/>
<path d="M1196 1157 c-17 -12 -16 -14 8 -25 20 -9 32 -9 52 0 24 11 25 13 8
25 -10 7 -25 13 -34 13 -9 0 -24 -6 -34 -13z"/>
<path d="M1305 1143 l-29 -16 27 -14 c20 -10 32 -11 47 -3 25 13 25 22 2 36
-14 9 -25 8 -47 -3z"/>
<path d="M1033 1137 c-28 -12 -29 -19 -3 -35 15 -9 25 -9 45 0 31 14 32 22 3
35 -16 7 -30 7 -45 0z"/>
<path d="M815 1128 c-11 -6 -22 -14 -25 -18 -3 -3 -20 -12 -38 -20 -20 -7 -29
-17 -24 -22 9 -9 62 9 62 22 0 3 16 12 35 19 19 7 33 17 30 22 -8 12 -15 11
-40 -3z"/>
<path d="M1143 1127 c-13 -6 -23 -13 -23 -17 0 -16 45 -27 68 -17 12 6 22 13
22 17 0 16 -45 27 -67 17z"/>
<path d="M862 1116 l-24 -13 26 -17 c24 -15 28 -15 52 0 l26 17 -24 13 c-12 7
-25 13 -28 13 -3 0 -16 -6 -28 -13z"/>
<path d="M1236 1105 c-21 -16 -21 -17 10 -33 16 -9 26 -7 43 4 21 15 21 17 4
30 -23 17 -33 17 -57 -1z"/>
<path d="M960 1096 l-25 -14 28 -13 c21 -10 33 -10 54 0 l28 13 -25 14 c-14 7
-27 13 -30 13 -3 0 -16 -6 -30 -13z"/>
<path d="M1072 1086 l-24 -13 24 -15 c21 -14 27 -14 53 -1 l28 15 -24 14 c-29
16 -29 16 -57 0z"/>
<path d="M795 1076 c-18 -13 -18 -14 4 -26 24 -12 71 -6 71 10 0 10 -32 30
-47 30 -5 0 -18 -6 -28 -14z"/>
<path d="M1170 1066 l-25 -14 28 -13 c21 -10 33 -10 54 0 l28 13 -25 14 c-14
7 -27 13 -30 13 -3 0 -16 -6 -30 -13z"/>
<path d="M696 1061 c-3 -4 -25 -18 -50 -31 -43 -21 -59 -40 -36 -40 19 0 59
23 54 31 -3 5 3 9 13 9 11 0 27 6 37 13 17 12 17 14 3 20 -9 3 -19 3 -21 -2z"/>
<path d="M895 1056 c-19 -14 -19 -15 6 -26 21 -9 32 -9 50 0 22 12 22 13 4 26
-24 18 -36 18 -60 0z"/>
<path d="M1005 1046 c-19 -14 -19 -15 6 -26 21 -9 32 -9 50 0 22 12 22 13 4
26 -24 18 -36 18 -60 0z"/>
<path d="M726 1037 c-16 -12 -16 -14 8 -27 21 -11 31 -11 52 -1 26 11 26 12 8
26 -24 18 -45 19 -68 2z"/>
<path d="M563 1010 c-29 -17 -53 -33 -53 -36 0 -6 88 42 105 57 16 16 1 9 -52
-21z"/>
<path d="M1105 1026 c-19 -14 -19 -15 6 -26 21 -9 32 -9 50 0 22 12 22 13 4
26 -24 18 -36 18 -60 0z"/>
<path d="M826 1017 c-17 -12 -16 -14 8 -25 20 -9 32 -9 52 0 24 11 25 13 8 25
-10 7 -25 13 -34 13 -9 0 -24 -6 -34 -13z"/>
<path d="M671 1003 l-22 -15 21 -15 c18 -13 26 -13 46 -3 25 14 24 24 -5 39
-13 7 -24 5 -40 -6z"/>
<path d="M936 1007 c-17 -12 -16 -14 8 -25 20 -9 32 -9 52 0 24 11 25 13 8 25
-10 7 -25 13 -34 13 -9 0 -24 -6 -34 -13z"/>
<path d="M1041 991 l-22 -17 26 -12 c19 -9 32 -9 46 -2 25 14 24 24 -4 37 -18
9 -28 7 -46 -6z"/>
<path d="M773 987 c-13 -6 -23 -13 -23 -17 0 -16 45 -27 68 -17 12 6 22 13 22
17 0 16 -45 27 -67 17z"/>
<path d="M547 976 c-17 -13 -15 -16 27 -41 44 -26 46 -26 70 -8 31 22 31 25 6
41 -17 10 -26 10 -53 -3 -23 -12 -27 -12 -14 -2 9 8 17 17 17 21 0 11 -34 6
-53 -8z"/>
<path d="M883 977 c-28 -12 -29 -19 -3 -35 15 -9 25 -9 45 0 31 14 32 22 3 35
-16 7 -30 7 -45 0z"/>
<path d="M976 955 c-21 -16 -21 -17 8 -32 14 -8 27 -8 43 0 30 13 29 21 -2 35
-31 14 -26 15 -49 -3z"/>
<path d="M678 933 c-27 -14 -46 -28 -44 -32 2 -3 29 -19 58 -35 l54 -29 67 39
c37 21 67 41 67 44 0 3 -9 11 -20 18 -18 11 -28 8 -78 -21 -73 -42 -108 -56
-72 -27 20 16 22 20 8 20 -22 0 -24 16 -3 24 9 3 15 0 15 -9 0 -18 5 -18 32
-4 21 11 21 12 -3 25 -30 17 -26 18 -81 -13z m137 -38 c-29 -24 -55 -32 -55
-17 0 10 51 40 70 41 9 0 3 -10 -15 -24z"/>
<path d="M858 885 c-43 -25 -82 -45 -88 -45 -19 0 -10 -17 15 -28 22 -10 35
-6 116 40 87 50 89 52 67 64 -13 8 -25 13 -28 14 -3 0 -40 -20 -82 -45z m76 4
c-10 -17 -103 -59 -109 -50 -6 10 -1 14 60 47 39 21 61 22 49 3z"/>
<path d="M1037 915 c-18 -13 -17 -14 7 -30 24 -16 28 -16 53 0 l26 18 -24 13
c-30 17 -40 17 -62 -1z"/>
<path d="M976 878 c-18 -10 -18 -11 5 -28 21 -17 26 -17 53 -3 l30 15 -25 14
c-29 16 -39 17 -63 2z"/>
<path d="M1350 876 c0 -7 56 -36 68 -36 4 0 17 7 28 15 18 14 17 15 -7 4 -21
-9 -33 -8 -58 5 -17 9 -31 14 -31 12z"/>
<path d="M910 840 c-13 -9 -12 -12 4 -25 11 -8 25 -15 31 -15 16 0 51 27 44
34 -12 12 -65 16 -79 6z"/>
<path d="M847 806 l-29 -13 26 -16 c31 -21 36 -21 65 -1 l24 17 -24 13 c-28
16 -26 16 -62 0z"/>
<path d="M1503 680 c-115 -24 -172 -94 -128 -157 17 -25 206 -141 226 -140 59
2 107 -30 139 -94 22 -43 26 -109 8 -127 -8 -8 -9 -12 -1 -12 16 0 40 26 48
51 12 38 -16 110 -61 157 -39 40 -47 44 -80 40 -24 -3 -32 -1 -23 4 8 5 56 33
107 63 l93 54 -6 -33 c-9 -43 27 -127 67 -161 44 -37 72 -41 113 -15 62 38 69
74 31 156 -40 86 -106 115 -171 75 l-30 -18 -85 46 c-82 44 -88 46 -170 46
-60 -1 -95 -6 -120 -18 -19 -9 -26 -15 -15 -12 52 12 135 12 182 -1 51 -13
153 -59 153 -69 0 -3 -16 -11 -36 -20 -20 -8 -52 -28 -72 -43 -21 -16 -45 -32
-56 -36 -31 -11 -236 116 -236 146 0 16 77 57 120 64 25 4 51 11 58 17 9 7 16
7 24 -1 17 -17 58 -15 65 4 3 8 2 19 -4 25 -14 14 -93 19 -140 9z m453 -159
c33 -20 74 -92 74 -130 0 -14 -7 -25 -20 -28 -11 -3 -20 -9 -20 -14 0 -4 -9
-13 -20 -19 -48 -26 -120 51 -120 128 0 39 3 44 30 53 17 6 30 15 30 20 0 13
12 11 46 -10z"/>
<path d="M1867 461 c-8 -31 28 -99 57 -107 33 -8 46 2 46 36 0 60 -89 122
-103 71z m67 -33 c30 -43 12 -65 -26 -31 -22 19 -24 53 -4 53 8 0 22 -10 30
-22z"/>
<path d="M1755 625 c23 -19 105 -63 90 -47 -5 5 -32 22 -60 37 -27 15 -41 19
-30 10z"/>
<path d="M522 524 c-98 -52 -132 -66 -167 -66 -24 0 -50 4 -57 8 -10 5 -10 4
-1 -6 7 -8 34 -14 60 -14 41 -1 65 9 163 62 103 57 143 82 130 82 -3 0 -60
-30 -128 -66z"/>
<path d="M2013 571 c16 -10 41 -35 55 -56 22 -30 27 -49 27 -96 0 -33 4 -54 9
-49 15 15 8 87 -13 128 -21 41 -73 92 -94 92 -7 0 1 -9 16 -19z"/>
<path d="M1242 489 c-2 -37 3 -61 14 -75 8 -10 12 -12 7 -4 -4 8 -11 42 -14
75 l-6 60 -1 -56z"/>
<path d="M1470 407 c0 -3 17 -16 38 -31 40 -28 71 -36 37 -10 -24 18 -75 46
-75 41z"/>
<path d="M1585 330 c3 -5 12 -10 20 -10 12 0 71 -73 74 -92 0 -5 1 -9 2 -10 8
-30 6 -56 -7 -76 -12 -19 -22 -23 -46 -20 -28 5 -29 4 -13 -8 10 -8 16 -17 12
-20 -13 -13 -72 10 -110 45 -43 39 -38 14 6 -27 61 -57 169 -26 175 51 4 47
-28 117 -70 152 -30 25 -55 34 -43 15z"/>
<path d="M1125 157 c-110 -66 -125 -72 -173 -71 -37 0 -48 -3 -36 -9 37 -21
98 0 219 73 130 78 133 80 119 80 -5 0 -63 -33 -129 -73z"/>
<path d="M1460 190 c20 -13 57 -13 65 0 4 6 -11 10 -37 10 -31 0 -39 -3 -28
-10z"/>
</g>
</svg>
